<svg width="186" height="40" viewBox="0 0 186 40" fill="none" xmlns="http://www.w3.org/2000/svg">
<path d="M27.5 22.4699L17.6085 3.07877e-06L-6.99382e-06 40L17.6085 25.9459L27.5 35.6757L37.3915 25.946L55 40L37.3915 6.53774e-06L27.5 22.4699Z" fill="white"/>
<path d="M71.72 26L69.384 21.76H68.728V26H65.992V14.768H70.584C71.4693 14.768 72.2213 14.9227 72.84 15.232C73.4693 15.5413 73.9387 15.968 74.248 16.512C74.5573 17.0453 74.712 17.6427 74.712 18.304C74.712 19.0507 74.4987 19.7173 74.072 20.304C73.656 20.8907 73.0373 21.3067 72.216 21.552L74.808 26H71.72ZM68.728 19.824H70.424C70.9253 19.824 71.2987 19.7013 71.544 19.456C71.8 19.2107 71.928 18.864 71.928 18.416C71.928 17.9893 71.8 17.6533 71.544 17.408C71.2987 17.1627 70.9253 17.04 70.424 17.04H68.728V19.824ZM95.4215 24.016H91.2295L90.5575 26H87.6935L91.7575 14.768H94.9255L98.9895 26H96.0935L95.4215 24.016ZM94.7175 21.904L93.3255 17.792L91.9495 21.904H94.7175ZM120.306 14.768V16.96H117.33V26H114.594V16.96H111.618V14.768H120.306ZM136.416 14.768V26H133.68V14.768H136.416ZM160.446 26H157.71L153.134 19.072V26H150.398V14.768H153.134L157.71 21.728V14.768H160.446V26ZM181.885 18.32C181.683 17.9467 181.39 17.664 181.006 17.472C180.632 17.2693 180.19 17.168 179.678 17.168C178.792 17.168 178.083 17.4613 177.549 18.048C177.016 18.624 176.75 19.3973 176.75 20.368C176.75 21.4027 177.027 22.2133 177.582 22.8C178.147 23.376 178.92 23.664 179.902 23.664C180.574 23.664 181.139 23.4933 181.598 23.152C182.067 22.8107 182.408 22.32 182.622 21.68H179.15V19.664H185.102V22.208C184.899 22.8907 184.552 23.5253 184.062 24.112C183.582 24.6987 182.968 25.1733 182.222 25.536C181.475 25.8987 180.632 26.08 179.694 26.08C178.584 26.08 177.592 25.84 176.718 25.36C175.854 24.8693 175.176 24.192 174.686 23.328C174.206 22.464 173.965 21.4773 173.965 20.368C173.965 19.2587 174.206 18.272 174.686 17.408C175.176 16.5333 175.854 15.856 176.718 15.376C177.582 14.8853 178.568 14.64 179.678 14.64C181.022 14.64 182.152 14.9653 183.07 15.616C183.998 16.2667 184.611 17.168 184.91 18.32H181.885Z" fill="white"/>
</svg>
